<svg id="Calque_1" data-name="Calque 1" xmlns="http://www.w3.org/2000/svg" viewBox="0 0 97.08 71.94"><defs><style>.cls-1{fill:#fff;}</style></defs><path class="cls-1" d="M64.05,68.58c-2.14-2.65-4.24-5.33-6.35-8-.09-.15-.21-.27-.33-.48.63,0,1.23,0,1.77,0A5.3,5.3,0,0,0,60.32,60c-1.15-.91-2.77-1.12-4.82-1-6.51.3-13,.15-19.55,0a3.35,3.35,0,0,0-3,1.15c.57,0,1.18,0,1.84,0a5.87,5.87,0,0,0-.36.51c-1.09,1.32-2.17,2.68-3.25,4v0c-1.21,1.48-2.38,3-3.56,4.46-.72.9-.69,1.45.09,2a.65.65,0,0,0,.15.12h.61a22.75,22.75,0,0,0,1.65-1.75,1.17,1.17,0,0,1,1-.48q15,0,30,0a1.13,1.13,0,0,1,1,.48c.52.63,1.12,1.18,1.66,1.75h.63a1.91,1.91,0,0,0,.7-.81v0A4.48,4.48,0,0,1,64.05,68.58ZM37.52,60.27a.76.76,0,0,1,.48-.15H54.08a.94.94,0,0,1,.49.15c.54.66,1,1.32,1.65,2H35.86Zm-5.21,6.5c.57-.72,1.08-1.38,1.66-2,.09-.12.36-.12.57-.12h23.1a.78.78,0,0,1,.6.3c.54.61,1,1.21,1.54,1.87Z"/><path class="cls-1" d="M59.78,2.08c-.46-1-2.35-1.89-3.59-1.92C50.29,0,44.36.19,38.48,0c-2.56-.09-3.79.78-4.81,3.16-6.93,16.14-14,32.22-21.05,48.3C9.78,58,7,64.45,3.85,71.62c5.33,0,9.91,0,14.46,0,3.19,0,7.13,1,9.36-.45-.78-.6-.81-1.15-.09-2,1.18-1.48,2.35-3,3.56-4.46v0c.3-.81.57-1.65.9-2.41a4.66,4.66,0,0,0,.24-.69,3.6,3.6,0,0,1,.63-1.41A3.35,3.35,0,0,1,36,59c6.51.12,13,.27,19.55,0,2-.09,3.67.12,4.82,1a5.55,5.55,0,0,1,1.86,3.52c.34,1.63,1.39,3.1,1.78,4.7,0,.15.06.27.09.39l.45.54c.43.54.61,1,.46,1.33v0c.81,1,2,1.29,3.85,1.2,6.14-.21,12.29,0,18.43-.06a25.07,25.07,0,0,0,2.89-.39C79.92,47.92,69.92,25,59.78,2.08ZM34.87,55.66a3.36,3.36,0,1,1,0-6.72,3.36,3.36,0,0,1,0,6.72Zm22.32,0a3.36,3.36,0,1,1,3.37-3.37A3.38,3.38,0,0,1,57.19,55.66Zm6.65-17.8c-.48.09-.93.21-1.41.3a25.73,25.73,0,0,0-6.6,3,65.69,65.69,0,0,0-9.4,7,2.2,2.2,0,0,1-.39.3c-.9-.75-1.74-1.5-2.65-2.23a48.43,48.43,0,0,0-11.08-7.16A31.76,31.76,0,0,0,28.7,38l-.49-.09c.1-1.47.16-2.92.22-4.37.18-2.86.36-5.75.51-8.64a7.78,7.78,0,0,1,7.5-7.17c3.7-.06,7.37,0,11,0H55.2a7.81,7.81,0,0,1,7.86,6.63,27.49,27.49,0,0,1,.24,3.19c.18,3.31.36,6.66.54,10Z"/><path class="cls-1" d="M47.16,23.26A1.12,1.12,0,0,1,46,24.34a1.11,1.11,0,0,1-1.11-1.12,1.12,1.12,0,0,1,2.23,0Z"/><path class="cls-1" d="M59.44,29.07v7.35c0,1-.54,1.44-1.53,1.32-2-.21-4-.45-5.93-.66l-3.26-.36c-1.26-.15-1.56-.46-1.56-1.69v-7c0-.84.24-1.26.81-1.38a2.14,2.14,0,0,1,.78,0c3.14.36,6.33.69,9.46,1.05C59.11,27.8,59.44,28.19,59.44,29.07Z"/><path class="cls-1" d="M44.9,27.86v7.35c0,1-.3,1.36-1.27,1.48l-1.83.21c-2,.21-4.07.42-6.09.66l-1.62.18a1.18,1.18,0,0,1-1.48-1.23V29a1.18,1.18,0,0,1,1.15-1.24c3.25-.36,6.5-.75,9.72-1.08C44.39,26.54,44.9,27,44.9,27.86Z"/></svg>