<svg id="Calque_1" data-name="Calque 1" xmlns="http://www.w3.org/2000/svg" viewBox="0 0 97.08 71.94"><defs><style>.cls-1{fill:#1074cc;}</style></defs><path class="cls-1" d="M49.8,42.76,48.16,40.7a.73.73,0,0,1-.09-.13h.46a1,1,0,0,0,.3,0,1.86,1.86,0,0,0-1.24-.26c-1.68.08-3.36,0-5,0a.87.87,0,0,0-.78.29h.47l-.09.14-.84,1h0l-.92,1.14c-.18.24-.17.38,0,.53,0,0,0,0,0,0h.15A3.68,3.68,0,0,0,41,43a.32.32,0,0,1,.25-.12H49a.3.3,0,0,1,.25.12,4.62,4.62,0,0,0,.43.45h.16a.42.42,0,0,0,.18-.21h0A1.19,1.19,0,0,1,49.8,42.76ZM43,40.61a.19.19,0,0,1,.12,0h4.15a.25.25,0,0,1,.12,0l.43.53H42.53Zm-1.35,1.68c.15-.19.28-.36.43-.53s.09,0,.15,0h6a.19.19,0,0,1,.16.08c.14.15.25.31.39.48Z"/><path class="cls-1" d="M48.69,25.61a1.19,1.19,0,0,0-.92-.49c-1.52-.06-3.05,0-4.56,0a1.13,1.13,0,0,0-1.25.81c-1.78,4.16-3.61,8.31-5.42,12.46-.73,1.67-1.46,3.34-2.26,5.19H38c.83,0,1.84.26,2.42-.12-.2-.15-.21-.29,0-.53l.92-1.14h0c.08-.21.15-.43.23-.62a1.34,1.34,0,0,0,.07-.18.83.83,0,0,1,.16-.37.87.87,0,0,1,.78-.29c1.68,0,3.36.07,5,0a1.86,1.86,0,0,1,1.24.26,1.4,1.4,0,0,1,.48.91c.09.42.36.8.46,1.21l0,.11.11.13c.11.14.16.25.12.35h0a1.1,1.1,0,0,0,1,.31c1.59,0,3.17,0,4.75,0a6.25,6.25,0,0,0,.75-.1C53.89,37.43,51.31,31.51,48.69,25.61ZM42.27,39.42a.88.88,0,0,1-.87-.86.87.87,0,1,1,1.74,0A.88.88,0,0,1,42.27,39.42Zm5.76,0a.86.86,0,0,1-.86-.86.87.87,0,1,1,1.73,0A.86.86,0,0,1,48,39.42Zm1.71-4.58-.36.07a6.56,6.56,0,0,0-1.7.78,17.1,17.1,0,0,0-2.43,1.82s-.06,0-.1.07L44.47,37a12.63,12.63,0,0,0-2.86-1.85,8.43,8.43,0,0,0-.93-.3l-.12,0c0-.38,0-.76,0-1.13,0-.74.1-1.48.13-2.23a2,2,0,0,1,1.94-1.85h4.83a2,2,0,0,1,2,1.71,5.46,5.46,0,0,1,.06.82c0,.85.1,1.71.14,2.57Z"/><path class="cls-1" d="M45.44,31.07a.29.29,0,0,1-.29.28.28.28,0,0,1-.28-.29.29.29,0,0,1,.28-.28A.3.3,0,0,1,45.44,31.07Z"/><path class="cls-1" d="M48.61,32.57v1.89c0,.26-.14.38-.4.35l-1.53-.18-.84-.09c-.32,0-.4-.12-.4-.43v-1.8c0-.21.06-.32.21-.35a.43.43,0,0,1,.2,0l2.44.27C48.52,32.24,48.61,32.34,48.61,32.57Z"/><path class="cls-1" d="M44.86,32.26v1.89c0,.26-.08.35-.33.38l-.47.06-1.57.17-.42.05a.31.31,0,0,1-.38-.32v-2a.31.31,0,0,1,.3-.32l2.5-.28C44.73,31.92,44.86,32,44.86,32.26Z"/><path d="M5.21,43V30.09H.1V25.53H16.2v4.56H11.09V43Z"/><path d="M25.69,43.37a8.58,8.58,0,0,1-6.25-2.17,8,8,0,0,1-2.25-6.08V25.53h5.88V35a4.29,4.29,0,0,0,.73,2.83,2.71,2.71,0,0,0,3.9,0A4.42,4.42,0,0,0,28.41,35V25.53h5.78v9.59a8,8,0,0,1-2.25,6.08A8.59,8.59,0,0,1,25.69,43.37Z"/><path d="M59.3,43V25.53h4.84L73,36.15H70.76V25.53H76.5V43H71.66L62.79,32.36H65V43Z"/><path d="M88.38,43.37a11.16,11.16,0,0,1-3.9-.66,9.13,9.13,0,0,1-3.09-1.88,8.55,8.55,0,0,1-2-2.89,9.82,9.82,0,0,1,0-7.38,8.54,8.54,0,0,1,2-2.89,9.31,9.31,0,0,1,3.13-1.88,11.48,11.48,0,0,1,4-.66,11.69,11.69,0,0,1,4.63.87,8.77,8.77,0,0,1,3.35,2.5l-3.76,3.31a5.91,5.91,0,0,0-1.79-1.43,4.58,4.58,0,0,0-2.13-.49,4.87,4.87,0,0,0-1.75.3,3.62,3.62,0,0,0-1.34.87,4,4,0,0,0-.84,1.37,5.15,5.15,0,0,0-.3,1.82,5.08,5.08,0,0,0,.3,1.78,4.14,4.14,0,0,0,.84,1.39A3.93,3.93,0,0,0,87,38.3a4.45,4.45,0,0,0,1.71.31,5.86,5.86,0,0,0,1.94-.33,7.61,7.61,0,0,0,2-1.16l3.29,4a12.35,12.35,0,0,1-3.64,1.65A14.69,14.69,0,0,1,88.38,43.37ZM96,41.15l-5.11-.74V33.78H96Z"/></svg>