<svg id="Calque_1" data-name="Calque 1" xmlns="http://www.w3.org/2000/svg" viewBox="0 0 86.28 71.94"><path d="M60.2,68.58c-2.14-2.65-4.25-5.33-6.35-8-.09-.15-.22-.27-.34-.48.64,0,1.24,0,1.78,0A5.37,5.37,0,0,0,56.47,60c-1.15-.91-2.77-1.12-4.82-1-6.51.3-13,.15-19.55,0a3.34,3.34,0,0,0-3,1.15c.57,0,1.18,0,1.84,0a5.87,5.87,0,0,0-.36.51c-1.09,1.32-2.17,2.68-3.26,4v0c-1.2,1.48-2.37,3-3.55,4.46-.72.9-.69,1.45.09,2a.65.65,0,0,0,.15.12h.6a21.08,21.08,0,0,0,1.66-1.75,1.17,1.17,0,0,1,1-.48q15,0,30,0a1.13,1.13,0,0,1,1,.48c.51.63,1.12,1.18,1.66,1.75h.63a1.81,1.81,0,0,0,.69-.81v0A4.6,4.6,0,0,1,60.2,68.58ZM33.67,60.27a.76.76,0,0,1,.48-.15H50.23a.91.91,0,0,1,.48.15c.55.66,1.06,1.32,1.66,2H32C32.58,61.59,33.13,60.93,33.67,60.27Zm-5.21,6.5c.57-.72,1.08-1.38,1.66-2,.09-.12.36-.12.57-.12h23.1a.78.78,0,0,1,.6.3c.54.61,1,1.21,1.53,1.87Z"/><path d="M55.92,2.08c-.45-1-2.35-1.89-3.58-1.92C46.44,0,40.5.19,34.63,0c-2.56-.09-3.79.78-4.82,3.16-6.92,16.14-14,32.22-21,48.3C5.93,58,3.13,64.45,0,71.62c5.33,0,9.91,0,14.46,0,3.19,0,7.13,1,9.36-.45-.78-.6-.81-1.15-.09-2,1.18-1.48,2.35-3,3.55-4.46v0c.31-.81.58-1.65.91-2.41a4.66,4.66,0,0,0,.24-.69,3.6,3.6,0,0,1,.63-1.41,3.34,3.34,0,0,1,3-1.15c6.51.12,13,.27,19.55,0,2.05-.09,3.67.12,4.82,1a5.55,5.55,0,0,1,1.86,3.52c.33,1.63,1.39,3.1,1.78,4.7,0,.15.06.27.09.39l.45.54c.42.54.6,1,.45,1.33v0c.82,1,2,1.29,3.86,1.2,6.14-.21,12.29,0,18.43-.06a25.07,25.07,0,0,0,2.89-.39C76.07,47.92,66.07,25,55.92,2.08ZM31,55.66a3.36,3.36,0,1,1,0-6.72,3.36,3.36,0,0,1,0,6.72Zm22.31,0a3.36,3.36,0,1,1,3.38-3.37A3.38,3.38,0,0,1,53.33,55.66ZM60,37.86c-.48.09-.93.21-1.42.3a25.66,25.66,0,0,0-6.59,3,65.13,65.13,0,0,0-9.4,7,2.2,2.2,0,0,1-.39.3c-.9-.75-1.75-1.5-2.65-2.23a48.64,48.64,0,0,0-11.08-7.16A31.92,31.92,0,0,0,24.84,38l-.48-.09c.09-1.47.15-2.92.21-4.37.18-2.86.37-5.75.52-8.64a7.78,7.78,0,0,1,7.49-7.17c3.71-.06,7.38,0,11,0h7.74a7.82,7.82,0,0,1,7.86,6.63,27.49,27.49,0,0,1,.24,3.19c.18,3.31.36,6.66.54,10Z"/><path d="M43.31,23.26a1.13,1.13,0,0,1-1.12,1.08,1.11,1.11,0,0,1-1.11-1.12,1.12,1.12,0,0,1,1.11-1.08A1.14,1.14,0,0,1,43.31,23.26Z"/><path d="M55.59,29.07v7.35c0,1-.54,1.44-1.53,1.32-2-.21-4-.45-5.94-.66l-3.25-.36c-1.26-.15-1.56-.46-1.56-1.69v-7c0-.84.24-1.26.81-1.38a2.14,2.14,0,0,1,.78,0c3.13.36,6.33.69,9.46,1.05C55.26,27.8,55.59,28.19,55.59,29.07Z"/><path d="M41.05,27.86v7.35c0,1-.3,1.36-1.27,1.48l-1.84.21c-2,.21-4.06.42-6.08.66l-1.62.18a1.18,1.18,0,0,1-1.48-1.23V29a1.18,1.18,0,0,1,1.14-1.24c3.26-.36,6.51-.75,9.73-1.08C40.53,26.54,41.05,27,41.05,27.86Z"/></svg>